<svg id="_x31__x2C_5" enable-background="new 0 0 24 24" height="512" viewBox="0 0 24 24" width="512" xmlns="http://www.w3.org/2000/svg"><path d="m23.25 8.348c-.414 0-.75-.336-.75-.75v-4.848c0-.689-.561-1.25-1.25-1.25h-4.848c-.414 0-.75-.336-.75-.75s.336-.75.75-.75h4.848c1.517 0 2.75 1.233 2.75 2.75v4.848c0 .414-.336.75-.75.75z"/><path d="m.75 8.348c-.414 0-.75-.336-.75-.75v-4.848c0-1.517 1.233-2.75 2.75-2.75h4.848c.414 0 .75.336.75.75s-.336.75-.75.75h-4.848c-.689 0-1.25.561-1.25 1.25v4.848c0 .414-.336.75-.75.75z"/><path d="m21.25 24h-4.848c-.414 0-.75-.336-.75-.75s.336-.75.75-.75h4.848c.689 0 1.25-.561 1.25-1.25v-4.848c0-.414.336-.75.75-.75s.75.336.75.75v4.848c0 1.517-1.233 2.75-2.75 2.75z"/><path d="m7.598 24h-4.848c-1.517 0-2.75-1.233-2.75-2.75v-4.848c0-.414.336-.75.75-.75s.75.336.75.75v4.848c0 .689.561 1.25 1.25 1.25h4.848c.414 0 .75.336.75.75s-.336.75-.75.75z"/><path d="m9.5 11h-5.75c-.414 0-.75-.336-.75-.75v-6.5c0-.414.336-.75.75-.75h5.75c.414 0 .75.336.75.75v6.5c0 .414-.336.75-.75.75zm-5-1.5h4.25v-5h-4.25z"/><path d="m21.25 21h-6.5c-.414 0-.75-.336-.75-.75v-3.5c0-.414.336-.75.75-.75s.75.336.75.75v2.75h5v-4h-3.75c-.414 0-.75-.336-.75-.75s.336-.75.75-.75h4.5c.414 0 .75.336.75.75v5.5c0 .414-.336.75-.75.75z"/><path d="m20.25 9h-4.5c-.414 0-.75-.336-.75-.75v-4.5c0-.414.336-.75.75-.75h4.5c.414 0 .75.336.75.75v4.5c0 .414-.336.75-.75.75zm-3.75-1.5h3v-3h-3z"/><path d="m12.25 14h-8.5c-.414 0-.75-.336-.75-.75s.336-.75.75-.75h7.75v-7.75c0-.414.336-.75.75-.75s.75.336.75.75v8.5c0 .414-.336.75-.75.75z"/><path d="m14.75 14c-.414 0-.75-.336-.75-.75v-1.5c0-.414.336-.75.75-.75h5.5c.414 0 .75.336.75.75s-.336.75-.75.75h-4.75v.75c0 .414-.336.75-.75.75z"/><path d="m9.25 21h-5.5c-.414 0-.75-.336-.75-.75v-4c0-.414.336-.75.75-.75h5.5c.414 0 .75.336.75.75v4c0 .414-.336.75-.75.75zm-4.75-1.5h4v-2.5h-4z"/><path d="m11.75 19.021c.414 0 .75-.336.75-.75v-2.5c0-.414-.336-.75-.75-.75s-.75.335-.75.75v2.5c0 .414.336.75.75.75z"/></svg>